<?xml version="1.0" encoding="iso-8859-1"?>
<!-- Generator: Adobe Illustrator 19.0.0, SVG Export Plug-In . SVG Version: 6.00 Build 0)  -->
<svg version="1.1" id="Layer_1" xmlns="http://www.w3.org/2000/svg" xmlns:xlink="http://www.w3.org/1999/xlink" x="0px" y="0px"
	 viewBox="0 0 496.2 496.2" style="enable-background:new 0 0 496.2 496.2;" xml:space="preserve">
<path style="fill:#334D5C;" d="M248.1,0C111.1,0,0,111.1,0,248.1s111.1,248.1,248.1,248.1s248.1-111.1,248.1-248.1S385.1,0,248.1,0z
	"/>
<polygon style="fill:#C7C8C9;" points="247.9,317 208.3,322.3 210.2,335.4 247.8,363.5 286,335.4 287.9,322.3 "/>
<path style="fill:#48A1AF;" d="M418.5,382.8c-8.5-27.3-81.2-49.3-170.8-49.3s-161.5,22-170,49.3c-2.6,8.5-5.5,22.2-8.3,37.4
	c45.1,46.9,108.5,76,178.7,76s133.6-29.2,178.7-76C424.1,405,421.2,391.2,418.5,382.8z"/>
<path style="fill:#E4E9ED;" d="M247.7,333.4c-89.6,0,0.4,162.8,0.4,162.8S337.3,333.4,247.7,333.4z"/>
<polygon style="fill:#2C7A82;" points="248.1,360.5 232.3,368.4 248.1,394 263.8,368.4 "/>
<g>
	<path style="fill:#E2A379;" d="M287,282.1h-77.8c12.1,36.6,1,53.3,1,53.3l26.9,6.1h22l26.9-6.1C286,335.4,274.9,318.7,287,282.1z"
		/>
	<path style="fill:#E2A379;" d="M247.9,317l-37.7,18.4c0,0,16.8,28.1,37.6,28.1s38.2-28.1,38.2-28.1L247.9,317z"/>
</g>
<g>
	<path style="fill:#F4B382;" d="M248.1,61.6c-48.7,0-88.3,21.2-88.3,113.6c0,31.3,6.2,55.8,15.5,74.7c20.4,41.6,55.7,56.1,72.8,56.1
		s52.4-14.5,72.8-56.1c9.3-18.9,15.5-43.4,15.5-74.7C336.4,82.8,296.8,61.6,248.1,61.6z"/>
	<path style="fill:#F4B382;" d="M161.4,178c-8.4,1.4-14.9,5.1-10.1,32.9s10.7,29.1,19.1,27.7L161.4,178z"/>
	<path style="fill:#F4B382;" d="M334.9,178l-9,60.6c8.4,1.4,14.3,0.1,19.1-27.7C349.7,183.1,343.3,179.5,334.9,178z"/>
</g>
<path style="fill:#E5A173;" d="M259.3,255.1c-3.2-0.5-11.2,2.6-11.2,2.6s-8.1-3-11.3-2.6c-5.2,0.7-12.8,4.8-12.8,6.2
	c0,2.3,10.8,8.5,24.2,8.5c13.4,0,24.2-6.3,24.2-8.5C272.3,261.3,264.5,255.8,259.3,255.1z"/>
<path style="fill:#D89364;" d="M248.1,262.4c-14.3,0-24.2-1.1-24.2-1.1c0,2.3,10.8,11.1,24.2,11.1s24.2-8.8,24.2-11.1
	C272.3,261.3,262.4,262.4,248.1,262.4z"/>
<g>
	<path style="fill:#30302E;" d="M248.1,59.1c-58,0-88.3,23.7-88.3,116.1l38.8-68.4c0,0,27.5,4.3,49.5,4.3s46.2-4.3,46.2-4.3
		l42.1,68.4C336.4,82.8,306.1,59.1,248.1,59.1z"/>
	<path style="fill:#30302E;" d="M180.1,138.6l-14.6,2.2c-4.2,10.9-5.6,24.4-5.6,37.5c0,0,8.8-1.9,8.8,2.6l2.8,27.6l3.9-1.9
		C175,183.6,180.1,138.6,180.1,138.6z"/>
	<path style="fill:#30302E;" d="M330.8,140.8l-14.6-0.4c0,0,5.1,43.2,4.9,66.2l3.9,1.9l2.8-27.6c0-4.5,8.8-2.6,8.8-2.6
		C336.5,165.1,335.1,151.7,330.8,140.8z"/>
</g>
<g>
	<polygon style="fill:#D4D6D8;" points="287.9,322.3 248.1,363.9 284.7,374.1 305.8,337.8 	"/>
	<polygon style="fill:#D4D6D8;" points="208.3,322.3 190.4,337.8 211.5,374.1 248.1,363.9 	"/>
</g>
<g>
	<path style="fill:#FFFFFF;" d="M248.1,489.9l-50.4-154.1l-1.1-3.4l-12.5,5.2l-40.3,48.5l84.5,109.3c6.5,0.5,13.1,0.8,19.8,0.8
		V489.9z"/>
	<path style="fill:#FFFFFF;" d="M311.5,337.4L311.5,337.4L311.5,337.4L311.5,337.4z"/>
	<path style="fill:#FFFFFF;" d="M312.1,337.6l-12.5-5.2l-1.1,3.5l-50.4,154v6.2c6.7,0,13.3-0.3,19.8-0.8l84.5-109.2L312.1,337.6z"/>
</g>
<polygon style="fill:#AF9604;" points="315.8,390.5 292.6,386 315.8,400.5 338.9,386 "/>
<path style="fill:#2C7A82;" d="M267,419.5c-2-22.6-15.4-38.5-15.4-38.5h-3.5v0.7V381h-3.5c0,0-13.4,15.9-15.4,38.5
	c-0.3,2.9-0.5,6.3-0.8,10.1l19.7,60.4l0,0l19.8-60.5C267.6,425.8,267.3,422.4,267,419.5z"/>
<g>
</g>
<g>
</g>
<g>
</g>
<g>
</g>
<g>
</g>
<g>
</g>
<g>
</g>
<g>
</g>
<g>
</g>
<g>
</g>
<g>
</g>
<g>
</g>
<g>
</g>
<g>
</g>
<g>
</g>
</svg>
